<mxfile host="65bd71144e">
    <diagram id="H-yicfvbNPAv17hLlmBM" name="Cloud diagramm">
        <mxGraphModel dx="1193" dy="790" grid="1" gridSize="10" guides="1" tooltips="1" connect="1" arrows="1" fold="1" page="1" pageScale="1" pageWidth="827" pageHeight="1169" math="0" shadow="0">
            <root>
                <mxCell id="0"/>
                <mxCell id="1" parent="0"/>
                <mxCell id="2" value="Famazon" style="shape=datastore;whiteSpace=wrap;html=1;strokeColor=#FF9933;" parent="1" vertex="1">
                    <mxGeometry x="220" y="480" width="296" height="190" as="geometry"/>
                </mxCell>
                <mxCell id="3" value="Customer" style="ellipse;shape=cloud;whiteSpace=wrap;html=1;fillColor=#76608a;strokeColor=#432D57;fontColor=#ffffff;" parent="1" vertex="1">
                    <mxGeometry x="30" y="320" width="210" height="130" as="geometry"/>
                </mxCell>
                <mxCell id="4" value="Product" style="ellipse;shape=cloud;whiteSpace=wrap;html=1;fillColor=#76608a;fontColor=#ffffff;strokeColor=#432D57;" parent="1" vertex="1">
                    <mxGeometry x="240" y="190" width="210" height="130" as="geometry"/>
                </mxCell>
                <mxCell id="5" value="Logistic" style="ellipse;shape=cloud;whiteSpace=wrap;html=1;fillColor=#76608a;fontColor=#ffffff;strokeColor=#432D57;" parent="1" vertex="1">
                    <mxGeometry x="460" y="290" width="250" height="150" as="geometry"/>
                </mxCell>
            </root>
        </mxGraphModel>
    </diagram>
    <diagram id="dswPn2UaY4wKsny2clel" name="ER diagramm">
        <mxGraphModel dx="2020" dy="790" grid="1" gridSize="10" guides="1" tooltips="1" connect="1" arrows="1" fold="1" page="1" pageScale="1" pageWidth="827" pageHeight="1169" math="0" shadow="0">
            <root>
                <mxCell id="A3H7R83fUuHKo-eSvD7W-0"/>
                <mxCell id="A3H7R83fUuHKo-eSvD7W-1" parent="A3H7R83fUuHKo-eSvD7W-0"/>
                <mxCell id="wQS23Me5Rp9776O16SMC-5" style="edgeStyle=none;html=1;entryX=0;entryY=0.5;entryDx=0;entryDy=0;shape=link;width=0;" parent="A3H7R83fUuHKo-eSvD7W-1" source="wQS23Me5Rp9776O16SMC-0" target="wQS23Me5Rp9776O16SMC-4" edge="1">
                    <mxGeometry relative="1" as="geometry"/>
                </mxCell>
                <mxCell id="wQS23Me5Rp9776O16SMC-9" style="edgeStyle=none;html=1;entryX=0.5;entryY=0;entryDx=0;entryDy=0;endArrow=baseDash;endFill=0;" parent="A3H7R83fUuHKo-eSvD7W-1" source="wQS23Me5Rp9776O16SMC-0" target="wQS23Me5Rp9776O16SMC-7" edge="1">
                    <mxGeometry relative="1" as="geometry"/>
                </mxCell>
                <mxCell id="wQS23Me5Rp9776O16SMC-0" value="Company" style="rounded=0;whiteSpace=wrap;html=1;fillColor=#0050ef;fontColor=#ffffff;strokeColor=#001DBC;" parent="A3H7R83fUuHKo-eSvD7W-1" vertex="1">
                    <mxGeometry x="550" y="40" width="120" height="60" as="geometry"/>
                </mxCell>
                <mxCell id="wQS23Me5Rp9776O16SMC-4" value="Name" style="ellipse;whiteSpace=wrap;html=1;fillColor=#647687;strokeColor=#314354;fontColor=#ffffff;" parent="A3H7R83fUuHKo-eSvD7W-1" vertex="1">
                    <mxGeometry x="750" y="30" width="120" height="80" as="geometry"/>
                </mxCell>
                <mxCell id="wQS23Me5Rp9776O16SMC-7" value="Produces" style="rhombus;whiteSpace=wrap;html=1;fillColor=#fa6800;fontColor=#000000;strokeColor=#C73500;" parent="A3H7R83fUuHKo-eSvD7W-1" vertex="1">
                    <mxGeometry x="545" y="150" width="130" height="70" as="geometry"/>
                </mxCell>
                <mxCell id="wQS23Me5Rp9776O16SMC-12" style="edgeStyle=none;html=1;entryX=0.5;entryY=1;entryDx=0;entryDy=0;startArrow=ERoneToMany;startFill=0;endArrow=baseDash;endFill=0;" parent="A3H7R83fUuHKo-eSvD7W-1" source="wQS23Me5Rp9776O16SMC-10" target="wQS23Me5Rp9776O16SMC-7" edge="1">
                    <mxGeometry relative="1" as="geometry"/>
                </mxCell>
                <mxCell id="wQS23Me5Rp9776O16SMC-15" style="edgeStyle=none;html=1;entryX=0;entryY=0.5;entryDx=0;entryDy=0;startArrow=none;startFill=0;endArrow=baseDash;endFill=0;" parent="A3H7R83fUuHKo-eSvD7W-1" source="wQS23Me5Rp9776O16SMC-10" target="wQS23Me5Rp9776O16SMC-13" edge="1">
                    <mxGeometry relative="1" as="geometry"/>
                </mxCell>
                <mxCell id="wQS23Me5Rp9776O16SMC-16" value="" style="edgeStyle=none;html=1;startArrow=none;startFill=0;endArrow=baseDash;endFill=0;" parent="A3H7R83fUuHKo-eSvD7W-1" source="wQS23Me5Rp9776O16SMC-10" target="wQS23Me5Rp9776O16SMC-14" edge="1">
                    <mxGeometry relative="1" as="geometry"/>
                </mxCell>
                <mxCell id="wQS23Me5Rp9776O16SMC-20" style="edgeStyle=none;html=1;entryX=0.5;entryY=0;entryDx=0;entryDy=0;startArrow=ERoneToMany;startFill=0;endArrow=baseDash;endFill=0;" parent="A3H7R83fUuHKo-eSvD7W-1" source="wQS23Me5Rp9776O16SMC-10" target="wQS23Me5Rp9776O16SMC-17" edge="1">
                    <mxGeometry relative="1" as="geometry"/>
                </mxCell>
                <mxCell id="wQS23Me5Rp9776O16SMC-65" style="edgeStyle=none;html=1;entryX=1;entryY=0.5;entryDx=0;entryDy=0;startArrow=ERmany;startFill=0;endArrow=oval;endFill=0;" parent="A3H7R83fUuHKo-eSvD7W-1" source="wQS23Me5Rp9776O16SMC-10" target="wQS23Me5Rp9776O16SMC-62" edge="1">
                    <mxGeometry relative="1" as="geometry"/>
                </mxCell>
                <mxCell id="wQS23Me5Rp9776O16SMC-10" value="Product" style="rounded=0;whiteSpace=wrap;html=1;fillColor=#0050ef;fontColor=#ffffff;strokeColor=#001DBC;" parent="A3H7R83fUuHKo-eSvD7W-1" vertex="1">
                    <mxGeometry x="550" y="260" width="120" height="60" as="geometry"/>
                </mxCell>
                <mxCell id="wQS23Me5Rp9776O16SMC-13" value="Name" style="ellipse;whiteSpace=wrap;html=1;fillColor=#647687;strokeColor=#314354;fontColor=#ffffff;" parent="A3H7R83fUuHKo-eSvD7W-1" vertex="1">
                    <mxGeometry x="750" y="210" width="120" height="80" as="geometry"/>
                </mxCell>
                <mxCell id="wQS23Me5Rp9776O16SMC-14" value="Price" style="ellipse;whiteSpace=wrap;html=1;fillColor=#647687;strokeColor=#314354;fontColor=#ffffff;" parent="A3H7R83fUuHKo-eSvD7W-1" vertex="1">
                    <mxGeometry x="750" y="320" width="120" height="80" as="geometry"/>
                </mxCell>
                <mxCell id="wQS23Me5Rp9776O16SMC-17" value="Contains" style="rhombus;whiteSpace=wrap;html=1;fillColor=#fa6800;fontColor=#000000;strokeColor=#C73500;" parent="A3H7R83fUuHKo-eSvD7W-1" vertex="1">
                    <mxGeometry x="555" y="420" width="120" height="70" as="geometry"/>
                </mxCell>
                <mxCell id="wQS23Me5Rp9776O16SMC-31" style="edgeStyle=none;html=1;entryX=0.75;entryY=0;entryDx=0;entryDy=0;startArrow=ERone;startFill=0;endArrow=baseDash;endFill=0;" parent="A3H7R83fUuHKo-eSvD7W-1" source="wQS23Me5Rp9776O16SMC-21" target="wQS23Me5Rp9776O16SMC-29" edge="1">
                    <mxGeometry relative="1" as="geometry"/>
                </mxCell>
                <mxCell id="wQS23Me5Rp9776O16SMC-21" value="Contains" style="rhombus;whiteSpace=wrap;html=1;fillColor=#fa6800;fontColor=#000000;strokeColor=#C73500;" parent="A3H7R83fUuHKo-eSvD7W-1" vertex="1">
                    <mxGeometry x="380" y="410" width="120" height="70" as="geometry"/>
                </mxCell>
                <mxCell id="wQS23Me5Rp9776O16SMC-22" style="edgeStyle=none;html=1;startArrow=ERoneToMany;startFill=0;endArrow=baseDash;endFill=0;exitX=0;exitY=1;exitDx=0;exitDy=0;" parent="A3H7R83fUuHKo-eSvD7W-1" source="wQS23Me5Rp9776O16SMC-10" target="wQS23Me5Rp9776O16SMC-21" edge="1">
                    <mxGeometry relative="1" as="geometry">
                        <mxPoint x="460.0038461538462" y="320" as="sourcePoint"/>
                        <mxPoint x="463.85" y="420" as="targetPoint"/>
                        <Array as="points"/>
                    </mxGeometry>
                </mxCell>
                <mxCell id="wQS23Me5Rp9776O16SMC-25" style="edgeStyle=none;html=1;entryX=0.5;entryY=1;entryDx=0;entryDy=0;startArrow=ERone;startFill=0;endArrow=baseDash;endFill=0;" parent="A3H7R83fUuHKo-eSvD7W-1" source="wQS23Me5Rp9776O16SMC-23" target="wQS23Me5Rp9776O16SMC-17" edge="1">
                    <mxGeometry relative="1" as="geometry"/>
                </mxCell>
                <mxCell id="wQS23Me5Rp9776O16SMC-23" value="Shopping Cart" style="rounded=0;whiteSpace=wrap;html=1;fillColor=#0050ef;fontColor=#ffffff;strokeColor=#001DBC;" parent="A3H7R83fUuHKo-eSvD7W-1" vertex="1">
                    <mxGeometry x="590" y="570" width="120" height="60" as="geometry"/>
                </mxCell>
                <mxCell id="wQS23Me5Rp9776O16SMC-27" value="" style="edgeStyle=none;html=1;startArrow=ERmandOne;startFill=0;endArrow=baseDash;endFill=0;" parent="A3H7R83fUuHKo-eSvD7W-1" source="wQS23Me5Rp9776O16SMC-26" target="wQS23Me5Rp9776O16SMC-23" edge="1">
                    <mxGeometry relative="1" as="geometry">
                        <Array as="points">
                            <mxPoint x="590" y="600"/>
                        </Array>
                    </mxGeometry>
                </mxCell>
                <mxCell id="wQS23Me5Rp9776O16SMC-30" style="edgeStyle=none;html=1;entryX=1;entryY=0.5;entryDx=0;entryDy=0;startArrow=ERmandOne;startFill=0;endArrow=baseDash;endFill=0;" parent="A3H7R83fUuHKo-eSvD7W-1" source="wQS23Me5Rp9776O16SMC-26" target="wQS23Me5Rp9776O16SMC-29" edge="1">
                    <mxGeometry relative="1" as="geometry"/>
                </mxCell>
                <mxCell id="wQS23Me5Rp9776O16SMC-26" value="Creates" style="rhombus;whiteSpace=wrap;html=1;fillColor=#fa6800;fontColor=#000000;strokeColor=#C73500;" parent="A3H7R83fUuHKo-eSvD7W-1" vertex="1">
                    <mxGeometry x="380" y="555" width="136" height="90" as="geometry"/>
                </mxCell>
                <mxCell id="wQS23Me5Rp9776O16SMC-34" style="edgeStyle=none;html=1;startArrow=none;startFill=0;endArrow=baseDash;endFill=0;" parent="A3H7R83fUuHKo-eSvD7W-1" source="wQS23Me5Rp9776O16SMC-29" target="wQS23Me5Rp9776O16SMC-33" edge="1">
                    <mxGeometry relative="1" as="geometry"/>
                </mxCell>
                <mxCell id="wQS23Me5Rp9776O16SMC-29" value="Order" style="rounded=0;whiteSpace=wrap;html=1;fillColor=#0050ef;fontColor=#ffffff;strokeColor=#001DBC;" parent="A3H7R83fUuHKo-eSvD7W-1" vertex="1">
                    <mxGeometry x="230" y="570" width="120" height="60" as="geometry"/>
                </mxCell>
                <mxCell id="wQS23Me5Rp9776O16SMC-33" value="Order Number" style="ellipse;whiteSpace=wrap;html=1;fillColor=#647687;strokeColor=#314354;fontColor=#ffffff;" parent="A3H7R83fUuHKo-eSvD7W-1" vertex="1">
                    <mxGeometry x="220" y="670" width="120" height="80" as="geometry"/>
                </mxCell>
                <mxCell id="wQS23Me5Rp9776O16SMC-36" style="edgeStyle=none;html=1;entryX=0;entryY=0.633;entryDx=0;entryDy=0;entryPerimeter=0;startArrow=none;startFill=0;endArrow=baseDash;endFill=0;" parent="A3H7R83fUuHKo-eSvD7W-1" source="wQS23Me5Rp9776O16SMC-35" target="wQS23Me5Rp9776O16SMC-29" edge="1">
                    <mxGeometry relative="1" as="geometry"/>
                </mxCell>
                <mxCell id="wQS23Me5Rp9776O16SMC-40" value="" style="edgeStyle=none;html=1;startArrow=none;startFill=0;endArrow=baseDash;endFill=0;" parent="A3H7R83fUuHKo-eSvD7W-1" source="wQS23Me5Rp9776O16SMC-35" target="wQS23Me5Rp9776O16SMC-37" edge="1">
                    <mxGeometry relative="1" as="geometry">
                        <Array as="points"/>
                    </mxGeometry>
                </mxCell>
                <mxCell id="wQS23Me5Rp9776O16SMC-35" value="Processes" style="rhombus;whiteSpace=wrap;html=1;fillColor=#fa6800;fontColor=#000000;strokeColor=#C73500;" parent="A3H7R83fUuHKo-eSvD7W-1" vertex="1">
                    <mxGeometry x="10" y="570" width="160" height="80" as="geometry"/>
                </mxCell>
                <mxCell id="wQS23Me5Rp9776O16SMC-42" style="edgeStyle=none;html=1;entryX=0.5;entryY=1;entryDx=0;entryDy=0;startArrow=none;startFill=0;endArrow=baseDash;endFill=0;" parent="A3H7R83fUuHKo-eSvD7W-1" source="wQS23Me5Rp9776O16SMC-37" target="wQS23Me5Rp9776O16SMC-41" edge="1">
                    <mxGeometry relative="1" as="geometry"/>
                </mxCell>
                <mxCell id="wQS23Me5Rp9776O16SMC-37" value="E-Commerce" style="rounded=0;whiteSpace=wrap;html=1;fillColor=#0050ef;fontColor=#ffffff;strokeColor=#001DBC;" parent="A3H7R83fUuHKo-eSvD7W-1" vertex="1">
                    <mxGeometry x="-150" y="585" width="120" height="60" as="geometry"/>
                </mxCell>
                <mxCell id="wQS23Me5Rp9776O16SMC-41" value="Forwards Order" style="rhombus;whiteSpace=wrap;html=1;fillColor=#fa6800;fontColor=#000000;strokeColor=#C73500;" parent="A3H7R83fUuHKo-eSvD7W-1" vertex="1">
                    <mxGeometry x="-270" y="400" width="140" height="80" as="geometry"/>
                </mxCell>
                <mxCell id="wQS23Me5Rp9776O16SMC-44" style="edgeStyle=none;html=1;entryX=0.5;entryY=0;entryDx=0;entryDy=0;startArrow=none;startFill=0;endArrow=baseDash;endFill=0;" parent="A3H7R83fUuHKo-eSvD7W-1" source="wQS23Me5Rp9776O16SMC-43" target="wQS23Me5Rp9776O16SMC-41" edge="1">
                    <mxGeometry relative="1" as="geometry"/>
                </mxCell>
                <mxCell id="wQS23Me5Rp9776O16SMC-49" value="" style="edgeStyle=none;html=1;startArrow=ERone;startFill=0;endArrow=baseDash;endFill=0;" parent="A3H7R83fUuHKo-eSvD7W-1" source="wQS23Me5Rp9776O16SMC-43" target="wQS23Me5Rp9776O16SMC-45" edge="1">
                    <mxGeometry relative="1" as="geometry">
                        <Array as="points">
                            <mxPoint x="-80" y="280"/>
                        </Array>
                    </mxGeometry>
                </mxCell>
                <mxCell id="wQS23Me5Rp9776O16SMC-43" value="Shipping" style="rounded=0;whiteSpace=wrap;html=1;fillColor=#0050ef;fontColor=#ffffff;strokeColor=#001DBC;" parent="A3H7R83fUuHKo-eSvD7W-1" vertex="1">
                    <mxGeometry x="-260" y="250" width="120" height="60" as="geometry"/>
                </mxCell>
                <mxCell id="wQS23Me5Rp9776O16SMC-45" value="ships product" style="rhombus;whiteSpace=wrap;html=1;fillColor=#fa6800;fontColor=#000000;strokeColor=#C73500;" parent="A3H7R83fUuHKo-eSvD7W-1" vertex="1">
                    <mxGeometry x="-80" y="240" width="130" height="80" as="geometry"/>
                </mxCell>
                <mxCell id="wQS23Me5Rp9776O16SMC-52" value="" style="edgeStyle=none;html=1;startArrow=ERone;startFill=0;endArrow=baseDash;endFill=0;" parent="A3H7R83fUuHKo-eSvD7W-1" source="wQS23Me5Rp9776O16SMC-51" target="wQS23Me5Rp9776O16SMC-45" edge="1">
                    <mxGeometry relative="1" as="geometry"/>
                </mxCell>
                <mxCell id="wQS23Me5Rp9776O16SMC-54" value="" style="edgeStyle=none;html=1;startArrow=ERmany;startFill=0;endArrow=baseDash;endFill=0;" parent="A3H7R83fUuHKo-eSvD7W-1" source="wQS23Me5Rp9776O16SMC-51" target="wQS23Me5Rp9776O16SMC-45" edge="1">
                    <mxGeometry relative="1" as="geometry"/>
                </mxCell>
                <mxCell id="wQS23Me5Rp9776O16SMC-58" style="edgeStyle=none;html=1;startArrow=none;startFill=0;endArrow=baseDash;endFill=0;" parent="A3H7R83fUuHKo-eSvD7W-1" source="wQS23Me5Rp9776O16SMC-51" target="wQS23Me5Rp9776O16SMC-55" edge="1">
                    <mxGeometry relative="1" as="geometry"/>
                </mxCell>
                <mxCell id="wQS23Me5Rp9776O16SMC-59" style="edgeStyle=none;html=1;entryX=0.5;entryY=1;entryDx=0;entryDy=0;startArrow=none;startFill=0;endArrow=baseDash;endFill=0;" parent="A3H7R83fUuHKo-eSvD7W-1" source="wQS23Me5Rp9776O16SMC-51" target="wQS23Me5Rp9776O16SMC-57" edge="1">
                    <mxGeometry relative="1" as="geometry"/>
                </mxCell>
                <mxCell id="wQS23Me5Rp9776O16SMC-60" style="edgeStyle=none;html=1;startArrow=none;startFill=0;endArrow=baseDash;endFill=0;" parent="A3H7R83fUuHKo-eSvD7W-1" source="wQS23Me5Rp9776O16SMC-51" target="wQS23Me5Rp9776O16SMC-56" edge="1">
                    <mxGeometry relative="1" as="geometry"/>
                </mxCell>
                <mxCell id="wQS23Me5Rp9776O16SMC-51" value="Customer" style="rounded=0;whiteSpace=wrap;html=1;fillColor=#0050ef;fontColor=#ffffff;strokeColor=#001DBC;" parent="A3H7R83fUuHKo-eSvD7W-1" vertex="1">
                    <mxGeometry x="120" y="230" width="120" height="60" as="geometry"/>
                </mxCell>
                <mxCell id="wQS23Me5Rp9776O16SMC-55" value="Name" style="ellipse;whiteSpace=wrap;html=1;fillColor=#647687;strokeColor=#314354;fontColor=#ffffff;" parent="A3H7R83fUuHKo-eSvD7W-1" vertex="1">
                    <mxGeometry x="-30" y="70" width="120" height="80" as="geometry"/>
                </mxCell>
                <mxCell id="wQS23Me5Rp9776O16SMC-56" value="E-mail" style="ellipse;whiteSpace=wrap;html=1;fillColor=#647687;strokeColor=#314354;fontColor=#ffffff;" parent="A3H7R83fUuHKo-eSvD7W-1" vertex="1">
                    <mxGeometry x="250" y="60" width="120" height="80" as="geometry"/>
                </mxCell>
                <mxCell id="wQS23Me5Rp9776O16SMC-57" value="Address" style="ellipse;whiteSpace=wrap;html=1;fillColor=#647687;strokeColor=#314354;fontColor=#ffffff;" parent="A3H7R83fUuHKo-eSvD7W-1" vertex="1">
                    <mxGeometry x="110" y="20" width="120" height="80" as="geometry"/>
                </mxCell>
                <mxCell id="wQS23Me5Rp9776O16SMC-63" style="edgeStyle=none;html=1;entryX=1;entryY=0.5;entryDx=0;entryDy=0;startArrow=ERmany;startFill=0;endArrow=oval;endFill=0;" parent="A3H7R83fUuHKo-eSvD7W-1" source="wQS23Me5Rp9776O16SMC-62" target="wQS23Me5Rp9776O16SMC-51" edge="1">
                    <mxGeometry relative="1" as="geometry"/>
                </mxCell>
                <mxCell id="wQS23Me5Rp9776O16SMC-62" value="Order" style="rhombus;whiteSpace=wrap;html=1;fillColor=#fa6800;fontColor=#000000;strokeColor=#C73500;" parent="A3H7R83fUuHKo-eSvD7W-1" vertex="1">
                    <mxGeometry x="310" y="230" width="160" height="80" as="geometry"/>
                </mxCell>
                <mxCell id="wQS23Me5Rp9776O16SMC-69" style="edgeStyle=none;html=1;startArrow=none;startFill=0;endArrow=none;endFill=0;" parent="A3H7R83fUuHKo-eSvD7W-1" source="wQS23Me5Rp9776O16SMC-66" target="wQS23Me5Rp9776O16SMC-67" edge="1">
                    <mxGeometry relative="1" as="geometry"/>
                </mxCell>
                <mxCell id="wQS23Me5Rp9776O16SMC-70" style="edgeStyle=none;html=1;entryX=0.2;entryY=1;entryDx=0;entryDy=0;entryPerimeter=0;startArrow=none;startFill=0;endArrow=none;endFill=0;" parent="A3H7R83fUuHKo-eSvD7W-1" source="wQS23Me5Rp9776O16SMC-66" target="wQS23Me5Rp9776O16SMC-51" edge="1">
                    <mxGeometry relative="1" as="geometry"/>
                </mxCell>
                <mxCell id="wQS23Me5Rp9776O16SMC-66" value="Has" style="rhombus;whiteSpace=wrap;html=1;fillColor=#fa6800;fontColor=#000000;strokeColor=#C73500;" parent="A3H7R83fUuHKo-eSvD7W-1" vertex="1">
                    <mxGeometry x="20" y="320" width="150" height="80" as="geometry"/>
                </mxCell>
                <mxCell id="wQS23Me5Rp9776O16SMC-71" style="edgeStyle=none;html=1;startArrow=none;startFill=0;endArrow=none;endFill=0;" parent="A3H7R83fUuHKo-eSvD7W-1" source="wQS23Me5Rp9776O16SMC-67" target="wQS23Me5Rp9776O16SMC-68" edge="1">
                    <mxGeometry relative="1" as="geometry"/>
                </mxCell>
                <mxCell id="wQS23Me5Rp9776O16SMC-67" value="Credit Card" style="rounded=0;whiteSpace=wrap;html=1;fillColor=#0050ef;fontColor=#ffffff;strokeColor=#001DBC;" parent="A3H7R83fUuHKo-eSvD7W-1" vertex="1">
                    <mxGeometry x="-90" y="400" width="120" height="60" as="geometry"/>
                </mxCell>
                <mxCell id="wQS23Me5Rp9776O16SMC-68" value="Verifies" style="rhombus;whiteSpace=wrap;html=1;fillColor=#fa6800;fontColor=#000000;strokeColor=#C73500;" parent="A3H7R83fUuHKo-eSvD7W-1" vertex="1">
                    <mxGeometry x="-90" y="500" width="120" height="70" as="geometry"/>
                </mxCell>
            </root>
        </mxGraphModel>
    </diagram>
    <diagram id="8d_EbqXfJ5s9glGJ7flm" name="Classes diagramm">
        <mxGraphModel dx="1193" dy="790" grid="1" gridSize="10" guides="1" tooltips="1" connect="1" arrows="1" fold="1" page="1" pageScale="1" pageWidth="827" pageHeight="1169" math="0" shadow="0">
            <root>
                <mxCell id="2lcLakKAp_XG5G1rbTEa-0"/>
                <mxCell id="2lcLakKAp_XG5G1rbTEa-1" parent="2lcLakKAp_XG5G1rbTEa-0"/>
                <mxCell id="2lcLakKAp_XG5G1rbTEa-2" value="Customer" style="swimlane;fontStyle=0;childLayout=stackLayout;horizontal=1;startSize=26;fillColor=#0050ef;horizontalStack=0;resizeParent=1;resizeParentMax=0;resizeLast=0;collapsible=1;marginBottom=0;fontColor=#ffffff;strokeColor=#001DBC;" parent="2lcLakKAp_XG5G1rbTEa-1" vertex="1">
                    <mxGeometry x="50" y="40" width="170" height="182" as="geometry"/>
                </mxCell>
                <mxCell id="2lcLakKAp_XG5G1rbTEa-3" value="- CustomerID: int" style="text;strokeColor=none;fillColor=none;align=left;verticalAlign=top;spacingLeft=4;spacingRight=4;overflow=hidden;rotatable=0;points=[[0,0.5],[1,0.5]];portConstraint=eastwest;" parent="2lcLakKAp_XG5G1rbTEa-2" vertex="1">
                    <mxGeometry y="26" width="170" height="26" as="geometry"/>
                </mxCell>
                <mxCell id="2lcLakKAp_XG5G1rbTEa-4" value="-CustomerName: Varchar" style="text;strokeColor=none;fillColor=none;align=left;verticalAlign=top;spacingLeft=4;spacingRight=4;overflow=hidden;rotatable=0;points=[[0,0.5],[1,0.5]];portConstraint=eastwest;" parent="2lcLakKAp_XG5G1rbTEa-2" vertex="1">
                    <mxGeometry y="52" width="170" height="26" as="geometry"/>
                </mxCell>
                <mxCell id="40fT0rzygGOp-l2pZ2MD-0" value="-CustomerAge: smallint" style="text;strokeColor=none;fillColor=none;align=left;verticalAlign=top;spacingLeft=4;spacingRight=4;overflow=hidden;rotatable=0;points=[[0,0.5],[1,0.5]];portConstraint=eastwest;" parent="2lcLakKAp_XG5G1rbTEa-2" vertex="1">
                    <mxGeometry y="78" width="170" height="26" as="geometry"/>
                </mxCell>
                <mxCell id="2lcLakKAp_XG5G1rbTEa-5" value="-Address: Varchar" style="text;strokeColor=none;fillColor=none;align=left;verticalAlign=top;spacingLeft=4;spacingRight=4;overflow=hidden;rotatable=0;points=[[0,0.5],[1,0.5]];portConstraint=eastwest;" parent="2lcLakKAp_XG5G1rbTEa-2" vertex="1">
                    <mxGeometry y="104" width="170" height="26" as="geometry"/>
                </mxCell>
                <mxCell id="2lcLakKAp_XG5G1rbTEa-6" value="-Email: Varchar" style="text;strokeColor=none;fillColor=none;align=left;verticalAlign=top;spacingLeft=4;spacingRight=4;overflow=hidden;rotatable=0;points=[[0,0.5],[1,0.5]];portConstraint=eastwest;" parent="2lcLakKAp_XG5G1rbTEa-2" vertex="1">
                    <mxGeometry y="130" width="170" height="26" as="geometry"/>
                </mxCell>
                <mxCell id="2lcLakKAp_XG5G1rbTEa-7" value="-Phone: int" style="text;strokeColor=none;fillColor=none;align=left;verticalAlign=top;spacingLeft=4;spacingRight=4;overflow=hidden;rotatable=0;points=[[0,0.5],[1,0.5]];portConstraint=eastwest;" parent="2lcLakKAp_XG5G1rbTEa-2" vertex="1">
                    <mxGeometry y="156" width="170" height="26" as="geometry"/>
                </mxCell>
                <mxCell id="2lcLakKAp_XG5G1rbTEa-8" value="Product" style="swimlane;fontStyle=0;childLayout=stackLayout;horizontal=1;startSize=26;fillColor=#0050ef;horizontalStack=0;resizeParent=1;resizeParentMax=0;resizeLast=0;collapsible=1;marginBottom=0;fontColor=#ffffff;strokeColor=#001DBC;" parent="2lcLakKAp_XG5G1rbTEa-1" vertex="1">
                    <mxGeometry x="460" y="340" width="140" height="104" as="geometry"/>
                </mxCell>
                <mxCell id="2lcLakKAp_XG5G1rbTEa-9" value="-ProductId: int" style="text;strokeColor=none;fillColor=none;align=left;verticalAlign=top;spacingLeft=4;spacingRight=4;overflow=hidden;rotatable=0;points=[[0,0.5],[1,0.5]];portConstraint=eastwest;" parent="2lcLakKAp_XG5G1rbTEa-8" vertex="1">
                    <mxGeometry y="26" width="140" height="26" as="geometry"/>
                </mxCell>
                <mxCell id="2lcLakKAp_XG5G1rbTEa-10" value="-ProductPrice: Float" style="text;strokeColor=none;fillColor=none;align=left;verticalAlign=top;spacingLeft=4;spacingRight=4;overflow=hidden;rotatable=0;points=[[0,0.5],[1,0.5]];portConstraint=eastwest;" parent="2lcLakKAp_XG5G1rbTEa-8" vertex="1">
                    <mxGeometry y="52" width="140" height="26" as="geometry"/>
                </mxCell>
                <mxCell id="2lcLakKAp_XG5G1rbTEa-11" value="-ProductType:Varchar" style="text;strokeColor=none;fillColor=none;align=left;verticalAlign=top;spacingLeft=4;spacingRight=4;overflow=hidden;rotatable=0;points=[[0,0.5],[1,0.5]];portConstraint=eastwest;" parent="2lcLakKAp_XG5G1rbTEa-8" vertex="1">
                    <mxGeometry y="78" width="140" height="26" as="geometry"/>
                </mxCell>
                <mxCell id="2lcLakKAp_XG5G1rbTEa-26" style="edgeStyle=none;html=1;entryX=0.636;entryY=-0.01;entryDx=0;entryDy=0;entryPerimeter=0;startArrow=none;startFill=0;endArrow=none;endFill=0;" parent="2lcLakKAp_XG5G1rbTEa-1" source="2lcLakKAp_XG5G1rbTEa-16" target="2lcLakKAp_XG5G1rbTEa-8" edge="1">
                    <mxGeometry relative="1" as="geometry"/>
                </mxCell>
                <mxCell id="2lcLakKAp_XG5G1rbTEa-16" value="Order" style="swimlane;fontStyle=0;childLayout=stackLayout;horizontal=1;startSize=26;fillColor=#0050ef;horizontalStack=0;resizeParent=1;resizeParentMax=0;resizeLast=0;collapsible=1;marginBottom=0;fontColor=#ffffff;strokeColor=#001DBC;" parent="2lcLakKAp_XG5G1rbTEa-1" vertex="1">
                    <mxGeometry x="480" y="46" width="170" height="182" as="geometry"/>
                </mxCell>
                <mxCell id="2lcLakKAp_XG5G1rbTEa-17" value="-OrderId: int" style="text;strokeColor=none;fillColor=none;align=left;verticalAlign=top;spacingLeft=4;spacingRight=4;overflow=hidden;rotatable=0;points=[[0,0.5],[1,0.5]];portConstraint=eastwest;" parent="2lcLakKAp_XG5G1rbTEa-16" vertex="1">
                    <mxGeometry y="26" width="170" height="26" as="geometry"/>
                </mxCell>
                <mxCell id="2lcLakKAp_XG5G1rbTEa-19" value="-CustomerId: int" style="text;strokeColor=none;fillColor=none;align=left;verticalAlign=top;spacingLeft=4;spacingRight=4;overflow=hidden;rotatable=0;points=[[0,0.5],[1,0.5]];portConstraint=eastwest;" parent="2lcLakKAp_XG5G1rbTEa-16" vertex="1">
                    <mxGeometry y="52" width="170" height="26" as="geometry"/>
                </mxCell>
                <mxCell id="2lcLakKAp_XG5G1rbTEa-20" value="-CustomerName:Varchar" style="text;strokeColor=none;fillColor=none;align=left;verticalAlign=top;spacingLeft=4;spacingRight=4;overflow=hidden;rotatable=0;points=[[0,0.5],[1,0.5]];portConstraint=eastwest;" parent="2lcLakKAp_XG5G1rbTEa-16" vertex="1">
                    <mxGeometry y="78" width="170" height="26" as="geometry"/>
                </mxCell>
                <mxCell id="2lcLakKAp_XG5G1rbTEa-21" value="-ProductId: int" style="text;strokeColor=none;fillColor=none;align=left;verticalAlign=top;spacingLeft=4;spacingRight=4;overflow=hidden;rotatable=0;points=[[0,0.5],[1,0.5]];portConstraint=eastwest;" parent="2lcLakKAp_XG5G1rbTEa-16" vertex="1">
                    <mxGeometry y="104" width="170" height="26" as="geometry"/>
                </mxCell>
                <mxCell id="2lcLakKAp_XG5G1rbTEa-22" value="-Amount: Float" style="text;strokeColor=none;fillColor=none;align=left;verticalAlign=top;spacingLeft=4;spacingRight=4;overflow=hidden;rotatable=0;points=[[0,0.5],[1,0.5]];portConstraint=eastwest;" parent="2lcLakKAp_XG5G1rbTEa-16" vertex="1">
                    <mxGeometry y="130" width="170" height="26" as="geometry"/>
                </mxCell>
                <mxCell id="2lcLakKAp_XG5G1rbTEa-23" value="-OrderDate: Datetime" style="text;strokeColor=none;fillColor=none;align=left;verticalAlign=top;spacingLeft=4;spacingRight=4;overflow=hidden;rotatable=0;points=[[0,0.5],[1,0.5]];portConstraint=eastwest;" parent="2lcLakKAp_XG5G1rbTEa-16" vertex="1">
                    <mxGeometry y="156" width="170" height="26" as="geometry"/>
                </mxCell>
                <mxCell id="2lcLakKAp_XG5G1rbTEa-12" value="Stock" style="swimlane;fontStyle=0;childLayout=stackLayout;horizontal=1;startSize=26;fillColor=#0050ef;horizontalStack=0;resizeParent=1;resizeParentMax=0;resizeLast=0;collapsible=1;marginBottom=0;fontColor=#ffffff;strokeColor=#001DBC;" parent="2lcLakKAp_XG5G1rbTEa-1" vertex="1">
                    <mxGeometry x="65" y="340" width="140" height="104" as="geometry"/>
                </mxCell>
                <mxCell id="2lcLakKAp_XG5G1rbTEa-13" value="-ProductId:int" style="text;strokeColor=none;fillColor=none;align=left;verticalAlign=top;spacingLeft=4;spacingRight=4;overflow=hidden;rotatable=0;points=[[0,0.5],[1,0.5]];portConstraint=eastwest;" parent="2lcLakKAp_XG5G1rbTEa-12" vertex="1">
                    <mxGeometry y="26" width="140" height="26" as="geometry"/>
                </mxCell>
                <mxCell id="2lcLakKAp_XG5G1rbTEa-14" value="-Quantity: int" style="text;strokeColor=none;fillColor=none;align=left;verticalAlign=top;spacingLeft=4;spacingRight=4;overflow=hidden;rotatable=0;points=[[0,0.5],[1,0.5]];portConstraint=eastwest;" parent="2lcLakKAp_XG5G1rbTEa-12" vertex="1">
                    <mxGeometry y="52" width="140" height="26" as="geometry"/>
                </mxCell>
                <mxCell id="2lcLakKAp_XG5G1rbTEa-15" value="-ShopNo: int" style="text;strokeColor=none;fillColor=none;align=left;verticalAlign=top;spacingLeft=4;spacingRight=4;overflow=hidden;rotatable=0;points=[[0,0.5],[1,0.5]];portConstraint=eastwest;" parent="2lcLakKAp_XG5G1rbTEa-12" vertex="1">
                    <mxGeometry y="78" width="140" height="26" as="geometry"/>
                </mxCell>
                <mxCell id="2lcLakKAp_XG5G1rbTEa-25" style="edgeStyle=none;html=1;entryX=0;entryY=0.5;entryDx=0;entryDy=0;startArrow=none;startFill=0;endArrow=none;endFill=0;" parent="2lcLakKAp_XG5G1rbTEa-1" source="2lcLakKAp_XG5G1rbTEa-5" target="2lcLakKAp_XG5G1rbTEa-17" edge="1">
                    <mxGeometry relative="1" as="geometry"/>
                </mxCell>
                <mxCell id="2lcLakKAp_XG5G1rbTEa-27" style="edgeStyle=none;html=1;entryX=1.029;entryY=0.154;entryDx=0;entryDy=0;entryPerimeter=0;startArrow=none;startFill=0;endArrow=none;endFill=0;" parent="2lcLakKAp_XG5G1rbTEa-1" source="2lcLakKAp_XG5G1rbTEa-10" target="2lcLakKAp_XG5G1rbTEa-14" edge="1">
                    <mxGeometry relative="1" as="geometry"/>
                </mxCell>
            </root>
        </mxGraphModel>
    </diagram>
    <diagram id="v4FD5KK78e6spITyJP8q" name="Normalize diagramm">
        <mxGraphModel dx="2020" dy="1959" grid="1" gridSize="10" guides="1" tooltips="1" connect="1" arrows="1" fold="1" page="1" pageScale="1" pageWidth="827" pageHeight="1169" math="0" shadow="0">
            <root>
                <mxCell id="vVZ5djF-utYb76rSsDAa-0"/>
                <mxCell id="vVZ5djF-utYb76rSsDAa-1" parent="vVZ5djF-utYb76rSsDAa-0"/>
                <mxCell id="IMlC7uSASTn_OTGU-c5A-0" value="Customer" style="swimlane;fontStyle=0;childLayout=stackLayout;horizontal=1;startSize=26;fillColor=#0050ef;horizontalStack=0;resizeParent=1;resizeParentMax=0;resizeLast=0;collapsible=1;marginBottom=0;fontColor=#ffffff;strokeColor=#001DBC;" parent="vVZ5djF-utYb76rSsDAa-1" vertex="1">
                    <mxGeometry x="-110" y="-170" width="170" height="130" as="geometry"/>
                </mxCell>
                <mxCell id="IMlC7uSASTn_OTGU-c5A-1" value="- CustomerID: int" style="text;strokeColor=none;fillColor=none;align=left;verticalAlign=top;spacingLeft=4;spacingRight=4;overflow=hidden;rotatable=0;points=[[0,0.5],[1,0.5]];portConstraint=eastwest;" parent="IMlC7uSASTn_OTGU-c5A-0" vertex="1">
                    <mxGeometry y="26" width="170" height="26" as="geometry"/>
                </mxCell>
                <mxCell id="IMlC7uSASTn_OTGU-c5A-2" value="-CustomerName: Varchar" style="text;strokeColor=none;fillColor=none;align=left;verticalAlign=top;spacingLeft=4;spacingRight=4;overflow=hidden;rotatable=0;points=[[0,0.5],[1,0.5]];portConstraint=eastwest;" parent="IMlC7uSASTn_OTGU-c5A-0" vertex="1">
                    <mxGeometry y="52" width="170" height="26" as="geometry"/>
                </mxCell>
                <mxCell id="IMlC7uSASTn_OTGU-c5A-3" value="-CustomerAge: smallint" style="text;strokeColor=none;fillColor=none;align=left;verticalAlign=top;spacingLeft=4;spacingRight=4;overflow=hidden;rotatable=0;points=[[0,0.5],[1,0.5]];portConstraint=eastwest;" parent="IMlC7uSASTn_OTGU-c5A-0" vertex="1">
                    <mxGeometry y="78" width="170" height="26" as="geometry"/>
                </mxCell>
                <mxCell id="IMlC7uSASTn_OTGU-c5A-5" value="-Email: Varchar" style="text;strokeColor=none;fillColor=none;align=left;verticalAlign=top;spacingLeft=4;spacingRight=4;overflow=hidden;rotatable=0;points=[[0,0.5],[1,0.5]];portConstraint=eastwest;" parent="IMlC7uSASTn_OTGU-c5A-0" vertex="1">
                    <mxGeometry y="104" width="170" height="26" as="geometry"/>
                </mxCell>
                <mxCell id="0MKYh_QOhmCYUrd1aA5g-0" value="Order" style="swimlane;fontStyle=0;childLayout=stackLayout;horizontal=1;startSize=26;fillColor=#0050ef;horizontalStack=0;resizeParent=1;resizeParentMax=0;resizeLast=0;collapsible=1;marginBottom=0;fontColor=#ffffff;strokeColor=#001DBC;" parent="vVZ5djF-utYb76rSsDAa-1" vertex="1">
                    <mxGeometry x="150" y="-90" width="170" height="208" as="geometry"/>
                </mxCell>
                <mxCell id="0MKYh_QOhmCYUrd1aA5g-1" value="-OrderId: int" style="text;strokeColor=none;fillColor=none;align=left;verticalAlign=top;spacingLeft=4;spacingRight=4;overflow=hidden;rotatable=0;points=[[0,0.5],[1,0.5]];portConstraint=eastwest;" parent="0MKYh_QOhmCYUrd1aA5g-0" vertex="1">
                    <mxGeometry y="26" width="170" height="26" as="geometry"/>
                </mxCell>
                <mxCell id="0MKYh_QOhmCYUrd1aA5g-2" value="-CustomerId: int" style="text;strokeColor=none;fillColor=none;align=left;verticalAlign=top;spacingLeft=4;spacingRight=4;overflow=hidden;rotatable=0;points=[[0,0.5],[1,0.5]];portConstraint=eastwest;" parent="0MKYh_QOhmCYUrd1aA5g-0" vertex="1">
                    <mxGeometry y="52" width="170" height="26" as="geometry"/>
                </mxCell>
                <mxCell id="0MKYh_QOhmCYUrd1aA5g-3" value="-CustomerName:Varchar" style="text;strokeColor=none;fillColor=none;align=left;verticalAlign=top;spacingLeft=4;spacingRight=4;overflow=hidden;rotatable=0;points=[[0,0.5],[1,0.5]];portConstraint=eastwest;" parent="0MKYh_QOhmCYUrd1aA5g-0" vertex="1">
                    <mxGeometry y="78" width="170" height="26" as="geometry"/>
                </mxCell>
                <mxCell id="0MKYh_QOhmCYUrd1aA5g-4" value="-ProductId: int" style="text;strokeColor=none;fillColor=none;align=left;verticalAlign=top;spacingLeft=4;spacingRight=4;overflow=hidden;rotatable=0;points=[[0,0.5],[1,0.5]];portConstraint=eastwest;" parent="0MKYh_QOhmCYUrd1aA5g-0" vertex="1">
                    <mxGeometry y="104" width="170" height="26" as="geometry"/>
                </mxCell>
                <mxCell id="0MKYh_QOhmCYUrd1aA5g-5" value="-Amount: Float" style="text;strokeColor=none;fillColor=none;align=left;verticalAlign=top;spacingLeft=4;spacingRight=4;overflow=hidden;rotatable=0;points=[[0,0.5],[1,0.5]];portConstraint=eastwest;" parent="0MKYh_QOhmCYUrd1aA5g-0" vertex="1">
                    <mxGeometry y="130" width="170" height="26" as="geometry"/>
                </mxCell>
                <mxCell id="0MKYh_QOhmCYUrd1aA5g-6" value="-OrderDate: Datetime" style="text;strokeColor=none;fillColor=none;align=left;verticalAlign=top;spacingLeft=4;spacingRight=4;overflow=hidden;rotatable=0;points=[[0,0.5],[1,0.5]];portConstraint=eastwest;" parent="0MKYh_QOhmCYUrd1aA5g-0" vertex="1">
                    <mxGeometry y="156" width="170" height="26" as="geometry"/>
                </mxCell>
                <mxCell id="N2jU7-_Bi30Auomegs-V-1" value="fk_customer_id:int" style="text;strokeColor=none;fillColor=none;align=left;verticalAlign=top;spacingLeft=4;spacingRight=4;overflow=hidden;rotatable=0;points=[[0,0.5],[1,0.5]];portConstraint=eastwest;" parent="0MKYh_QOhmCYUrd1aA5g-0" vertex="1">
                    <mxGeometry y="182" width="170" height="26" as="geometry"/>
                </mxCell>
                <mxCell id="pHsj-bQBmTcRuArejQxP-0" value="Product" style="swimlane;fontStyle=0;childLayout=stackLayout;horizontal=1;startSize=26;fillColor=#0050ef;horizontalStack=0;resizeParent=1;resizeParentMax=0;resizeLast=0;collapsible=1;marginBottom=0;fontColor=#ffffff;strokeColor=#001DBC;" parent="vVZ5djF-utYb76rSsDAa-1" vertex="1">
                    <mxGeometry x="860" width="140" height="130" as="geometry"/>
                </mxCell>
                <mxCell id="pHsj-bQBmTcRuArejQxP-1" value="-ProductId: int" style="text;strokeColor=none;fillColor=none;align=left;verticalAlign=top;spacingLeft=4;spacingRight=4;overflow=hidden;rotatable=0;points=[[0,0.5],[1,0.5]];portConstraint=eastwest;" parent="pHsj-bQBmTcRuArejQxP-0" vertex="1">
                    <mxGeometry y="26" width="140" height="26" as="geometry"/>
                </mxCell>
                <mxCell id="pHsj-bQBmTcRuArejQxP-2" value="-ProductPrice: Float" style="text;strokeColor=none;fillColor=none;align=left;verticalAlign=top;spacingLeft=4;spacingRight=4;overflow=hidden;rotatable=0;points=[[0,0.5],[1,0.5]];portConstraint=eastwest;" parent="pHsj-bQBmTcRuArejQxP-0" vertex="1">
                    <mxGeometry y="52" width="140" height="26" as="geometry"/>
                </mxCell>
                <mxCell id="pHsj-bQBmTcRuArejQxP-3" value="-ProductType:Varchar" style="text;strokeColor=none;fillColor=none;align=left;verticalAlign=top;spacingLeft=4;spacingRight=4;overflow=hidden;rotatable=0;points=[[0,0.5],[1,0.5]];portConstraint=eastwest;" parent="pHsj-bQBmTcRuArejQxP-0" vertex="1">
                    <mxGeometry y="78" width="140" height="26" as="geometry"/>
                </mxCell>
                <mxCell id="5lIQYGUYC-vst8H9QLgj-9" value="-ProductName:Varchar" style="text;strokeColor=none;fillColor=none;align=left;verticalAlign=top;spacingLeft=4;spacingRight=4;overflow=hidden;rotatable=0;points=[[0,0.5],[1,0.5]];portConstraint=eastwest;" parent="pHsj-bQBmTcRuArejQxP-0" vertex="1">
                    <mxGeometry y="104" width="140" height="26" as="geometry"/>
                </mxCell>
                <mxCell id="OolGx-5ElST4sEDqL1vC-0" value="Stock" style="swimlane;fontStyle=0;childLayout=stackLayout;horizontal=1;startSize=26;fillColor=#0050ef;horizontalStack=0;resizeParent=1;resizeParentMax=0;resizeLast=0;collapsible=1;marginBottom=0;fontColor=#ffffff;strokeColor=#001DBC;" parent="vVZ5djF-utYb76rSsDAa-1" vertex="1">
                    <mxGeometry x="850" y="190" width="140" height="130" as="geometry"/>
                </mxCell>
                <mxCell id="OolGx-5ElST4sEDqL1vC-1" value="-ProductId:int" style="text;strokeColor=none;fillColor=none;align=left;verticalAlign=top;spacingLeft=4;spacingRight=4;overflow=hidden;rotatable=0;points=[[0,0.5],[1,0.5]];portConstraint=eastwest;" parent="OolGx-5ElST4sEDqL1vC-0" vertex="1">
                    <mxGeometry y="26" width="140" height="26" as="geometry"/>
                </mxCell>
                <mxCell id="OolGx-5ElST4sEDqL1vC-2" value="-Quantity: int" style="text;strokeColor=none;fillColor=none;align=left;verticalAlign=top;spacingLeft=4;spacingRight=4;overflow=hidden;rotatable=0;points=[[0,0.5],[1,0.5]];portConstraint=eastwest;" parent="OolGx-5ElST4sEDqL1vC-0" vertex="1">
                    <mxGeometry y="52" width="140" height="26" as="geometry"/>
                </mxCell>
                <mxCell id="OolGx-5ElST4sEDqL1vC-3" value="-ShopNo: int" style="text;strokeColor=none;fillColor=none;align=left;verticalAlign=top;spacingLeft=4;spacingRight=4;overflow=hidden;rotatable=0;points=[[0,0.5],[1,0.5]];portConstraint=eastwest;" parent="OolGx-5ElST4sEDqL1vC-0" vertex="1">
                    <mxGeometry y="78" width="140" height="26" as="geometry"/>
                </mxCell>
                <mxCell id="71KVQejM1Na75NssMTsE-0" value="-fk_product_id:int" style="text;strokeColor=none;fillColor=none;align=left;verticalAlign=top;spacingLeft=4;spacingRight=4;overflow=hidden;rotatable=0;points=[[0,0.5],[1,0.5]];portConstraint=eastwest;" parent="OolGx-5ElST4sEDqL1vC-0" vertex="1">
                    <mxGeometry y="104" width="140" height="26" as="geometry"/>
                </mxCell>
                <mxCell id="5lIQYGUYC-vst8H9QLgj-0" value="Employer" style="swimlane;fontStyle=0;childLayout=stackLayout;horizontal=1;startSize=26;fillColor=#0050ef;horizontalStack=0;resizeParent=1;resizeParentMax=0;resizeLast=0;collapsible=1;marginBottom=0;fontColor=#ffffff;strokeColor=#001DBC;" parent="vVZ5djF-utYb76rSsDAa-1" vertex="1">
                    <mxGeometry x="770" y="450" width="140" height="104" as="geometry"/>
                </mxCell>
                <mxCell id="5lIQYGUYC-vst8H9QLgj-1" value="-EmployerId:int" style="text;strokeColor=none;fillColor=none;align=left;verticalAlign=top;spacingLeft=4;spacingRight=4;overflow=hidden;rotatable=0;points=[[0,0.5],[1,0.5]];portConstraint=eastwest;" parent="5lIQYGUYC-vst8H9QLgj-0" vertex="1">
                    <mxGeometry y="26" width="140" height="26" as="geometry"/>
                </mxCell>
                <mxCell id="5lIQYGUYC-vst8H9QLgj-2" value="fullname:varchar" style="text;strokeColor=none;fillColor=none;align=left;verticalAlign=top;spacingLeft=4;spacingRight=4;overflow=hidden;rotatable=0;points=[[0,0.5],[1,0.5]];portConstraint=eastwest;" parent="5lIQYGUYC-vst8H9QLgj-0" vertex="1">
                    <mxGeometry y="52" width="140" height="26" as="geometry"/>
                </mxCell>
                <mxCell id="5lIQYGUYC-vst8H9QLgj-3" value="salary:int" style="text;strokeColor=none;fillColor=none;align=left;verticalAlign=top;spacingLeft=4;spacingRight=4;overflow=hidden;rotatable=0;points=[[0,0.5],[1,0.5]];portConstraint=eastwest;" parent="5lIQYGUYC-vst8H9QLgj-0" vertex="1">
                    <mxGeometry y="78" width="140" height="26" as="geometry"/>
                </mxCell>
                <mxCell id="5lIQYGUYC-vst8H9QLgj-5" value="Company" style="swimlane;fontStyle=0;childLayout=stackLayout;horizontal=1;startSize=26;fillColor=#0050ef;horizontalStack=0;resizeParent=1;resizeParentMax=0;resizeLast=0;collapsible=1;marginBottom=0;fontColor=#ffffff;strokeColor=#001DBC;" parent="vVZ5djF-utYb76rSsDAa-1" vertex="1">
                    <mxGeometry x="827" y="-170" width="180" height="78" as="geometry"/>
                </mxCell>
                <mxCell id="5lIQYGUYC-vst8H9QLgj-6" value="-CompanyId:int" style="text;strokeColor=none;fillColor=none;align=left;verticalAlign=top;spacingLeft=4;spacingRight=4;overflow=hidden;rotatable=0;points=[[0,0.5],[1,0.5]];portConstraint=eastwest;" parent="5lIQYGUYC-vst8H9QLgj-5" vertex="1">
                    <mxGeometry y="26" width="180" height="26" as="geometry"/>
                </mxCell>
                <mxCell id="5lIQYGUYC-vst8H9QLgj-7" value="-company_name:Varchar" style="text;strokeColor=none;fillColor=none;align=left;verticalAlign=top;spacingLeft=4;spacingRight=4;overflow=hidden;rotatable=0;points=[[0,0.5],[1,0.5]];portConstraint=eastwest;" parent="5lIQYGUYC-vst8H9QLgj-5" vertex="1">
                    <mxGeometry y="52" width="180" height="26" as="geometry"/>
                </mxCell>
                <mxCell id="JmUOibSIEj91LaBSfH9i-0" value="many_product" style="swimlane;fontStyle=0;childLayout=stackLayout;horizontal=1;startSize=26;fillColor=#0050ef;horizontalStack=0;resizeParent=1;resizeParentMax=0;resizeLast=0;collapsible=1;marginBottom=0;fontColor=#ffffff;strokeColor=#001DBC;" parent="vVZ5djF-utYb76rSsDAa-1" vertex="1">
                    <mxGeometry x="580" y="40" width="140" height="104" as="geometry"/>
                </mxCell>
                <mxCell id="JmUOibSIEj91LaBSfH9i-1" value="-many_productId:int" style="text;strokeColor=none;fillColor=none;align=left;verticalAlign=top;spacingLeft=4;spacingRight=4;overflow=hidden;rotatable=0;points=[[0,0.5],[1,0.5]];portConstraint=eastwest;" parent="JmUOibSIEj91LaBSfH9i-0" vertex="1">
                    <mxGeometry y="26" width="140" height="26" as="geometry"/>
                </mxCell>
                <mxCell id="JmUOibSIEj91LaBSfH9i-2" value="-fk_company_id:int" style="text;strokeColor=none;fillColor=none;align=left;verticalAlign=top;spacingLeft=4;spacingRight=4;overflow=hidden;rotatable=0;points=[[0,0.5],[1,0.5]];portConstraint=eastwest;" parent="JmUOibSIEj91LaBSfH9i-0" vertex="1">
                    <mxGeometry y="52" width="140" height="26" as="geometry"/>
                </mxCell>
                <mxCell id="JmUOibSIEj91LaBSfH9i-3" value="-fk_product_id:int" style="text;strokeColor=none;fillColor=none;align=left;verticalAlign=top;spacingLeft=4;spacingRight=4;overflow=hidden;rotatable=0;points=[[0,0.5],[1,0.5]];portConstraint=eastwest;" parent="JmUOibSIEj91LaBSfH9i-0" vertex="1">
                    <mxGeometry y="78" width="140" height="26" as="geometry"/>
                </mxCell>
                <mxCell id="71KVQejM1Na75NssMTsE-1" value="E-Commerce" style="swimlane;fontStyle=0;childLayout=stackLayout;horizontal=1;startSize=26;fillColor=#0050ef;horizontalStack=0;resizeParent=1;resizeParentMax=0;resizeLast=0;collapsible=1;marginBottom=0;fontColor=#ffffff;strokeColor=#001DBC;" parent="vVZ5djF-utYb76rSsDAa-1" vertex="1">
                    <mxGeometry x="380" y="109" width="140" height="104" as="geometry"/>
                </mxCell>
                <mxCell id="71KVQejM1Na75NssMTsE-2" value="e_commerce_id:int" style="text;strokeColor=none;fillColor=none;align=left;verticalAlign=top;spacingLeft=4;spacingRight=4;overflow=hidden;rotatable=0;points=[[0,0.5],[1,0.5]];portConstraint=eastwest;" parent="71KVQejM1Na75NssMTsE-1" vertex="1">
                    <mxGeometry y="26" width="140" height="26" as="geometry"/>
                </mxCell>
                <mxCell id="71KVQejM1Na75NssMTsE-3" value="fk_order_id:int" style="text;strokeColor=none;fillColor=none;align=left;verticalAlign=top;spacingLeft=4;spacingRight=4;overflow=hidden;rotatable=0;points=[[0,0.5],[1,0.5]];portConstraint=eastwest;" parent="71KVQejM1Na75NssMTsE-1" vertex="1">
                    <mxGeometry y="52" width="140" height="26" as="geometry"/>
                </mxCell>
                <mxCell id="zNNu8xg-2pNTnuFT27i6-2" value="fk_many_product_id: int" style="text;strokeColor=none;fillColor=none;align=left;verticalAlign=top;spacingLeft=4;spacingRight=4;overflow=hidden;rotatable=0;points=[[0,0.5],[1,0.5]];portConstraint=eastwest;" parent="71KVQejM1Na75NssMTsE-1" vertex="1">
                    <mxGeometry y="78" width="140" height="26" as="geometry"/>
                </mxCell>
                <mxCell id="hBTxGN1n7R34lbs5RGc8-0" value="Shipping" style="swimlane;fontStyle=0;childLayout=stackLayout;horizontal=1;startSize=26;fillColor=#0050ef;horizontalStack=0;resizeParent=1;resizeParentMax=0;resizeLast=0;collapsible=1;marginBottom=0;fontColor=#ffffff;strokeColor=#001DBC;" parent="vVZ5djF-utYb76rSsDAa-1" vertex="1">
                    <mxGeometry x="260" y="310" width="140" height="78" as="geometry"/>
                </mxCell>
                <mxCell id="hBTxGN1n7R34lbs5RGc8-1" value="-ShippingId:int" style="text;strokeColor=none;fillColor=none;align=left;verticalAlign=top;spacingLeft=4;spacingRight=4;overflow=hidden;rotatable=0;points=[[0,0.5],[1,0.5]];portConstraint=eastwest;" parent="hBTxGN1n7R34lbs5RGc8-0" vertex="1">
                    <mxGeometry y="26" width="140" height="26" as="geometry"/>
                </mxCell>
                <mxCell id="hBTxGN1n7R34lbs5RGc8-3" value="fk_many_product_id:int" style="text;strokeColor=none;fillColor=none;align=left;verticalAlign=top;spacingLeft=4;spacingRight=4;overflow=hidden;rotatable=0;points=[[0,0.5],[1,0.5]];portConstraint=eastwest;" parent="hBTxGN1n7R34lbs5RGc8-0" vertex="1">
                    <mxGeometry y="52" width="140" height="26" as="geometry"/>
                </mxCell>
                <mxCell id="hBTxGN1n7R34lbs5RGc8-8" value="address_C" style="swimlane;fontStyle=0;childLayout=stackLayout;horizontal=1;startSize=26;fillColor=#0050ef;horizontalStack=0;resizeParent=1;resizeParentMax=0;resizeLast=0;collapsible=1;marginBottom=0;fontColor=#ffffff;strokeColor=#001DBC;" parent="vVZ5djF-utYb76rSsDAa-1" vertex="1">
                    <mxGeometry x="-20" y="180" width="140" height="208" as="geometry"/>
                </mxCell>
                <mxCell id="hBTxGN1n7R34lbs5RGc8-9" value="address_id:int" style="text;strokeColor=none;fillColor=none;align=left;verticalAlign=top;spacingLeft=4;spacingRight=4;overflow=hidden;rotatable=0;points=[[0,0.5],[1,0.5]];portConstraint=eastwest;" parent="hBTxGN1n7R34lbs5RGc8-8" vertex="1">
                    <mxGeometry y="26" width="140" height="26" as="geometry"/>
                </mxCell>
                <mxCell id="hBTxGN1n7R34lbs5RGc8-10" value="zip:int" style="text;strokeColor=none;fillColor=none;align=left;verticalAlign=top;spacingLeft=4;spacingRight=4;overflow=hidden;rotatable=0;points=[[0,0.5],[1,0.5]];portConstraint=eastwest;" parent="hBTxGN1n7R34lbs5RGc8-8" vertex="1">
                    <mxGeometry y="52" width="140" height="26" as="geometry"/>
                </mxCell>
                <mxCell id="hBTxGN1n7R34lbs5RGc8-12" value="country:varchar(40)" style="text;strokeColor=none;fillColor=none;align=left;verticalAlign=top;spacingLeft=4;spacingRight=4;overflow=hidden;rotatable=0;points=[[0,0.5],[1,0.5]];portConstraint=eastwest;" parent="hBTxGN1n7R34lbs5RGc8-8" vertex="1">
                    <mxGeometry y="78" width="140" height="26" as="geometry"/>
                </mxCell>
                <mxCell id="hBTxGN1n7R34lbs5RGc8-13" value="city:varchar(40)" style="text;strokeColor=none;fillColor=none;align=left;verticalAlign=top;spacingLeft=4;spacingRight=4;overflow=hidden;rotatable=0;points=[[0,0.5],[1,0.5]];portConstraint=eastwest;" parent="hBTxGN1n7R34lbs5RGc8-8" vertex="1">
                    <mxGeometry y="104" width="140" height="26" as="geometry"/>
                </mxCell>
                <mxCell id="hBTxGN1n7R34lbs5RGc8-14" value="area:varchar(40)" style="text;strokeColor=none;fillColor=none;align=left;verticalAlign=top;spacingLeft=4;spacingRight=4;overflow=hidden;rotatable=0;points=[[0,0.5],[1,0.5]];portConstraint=eastwest;" parent="hBTxGN1n7R34lbs5RGc8-8" vertex="1">
                    <mxGeometry y="130" width="140" height="26" as="geometry"/>
                </mxCell>
                <mxCell id="5pcBNOeqyGuDeDVCuuN8-0" value="fk_shipping_id:int" style="text;strokeColor=none;fillColor=none;align=left;verticalAlign=top;spacingLeft=4;spacingRight=4;overflow=hidden;rotatable=0;points=[[0,0.5],[1,0.5]];portConstraint=eastwest;" vertex="1" parent="hBTxGN1n7R34lbs5RGc8-8">
                    <mxGeometry y="156" width="140" height="26" as="geometry"/>
                </mxCell>
                <mxCell id="zNNu8xg-2pNTnuFT27i6-6" value="fk_customer_id:int" style="text;strokeColor=none;fillColor=none;align=left;verticalAlign=top;spacingLeft=4;spacingRight=4;overflow=hidden;rotatable=0;points=[[0,0.5],[1,0.5]];portConstraint=eastwest;" parent="hBTxGN1n7R34lbs5RGc8-8" vertex="1">
                    <mxGeometry y="182" width="140" height="26" as="geometry"/>
                </mxCell>
                <mxCell id="hBTxGN1n7R34lbs5RGc8-15" value="Office" style="swimlane;fontStyle=0;childLayout=stackLayout;horizontal=1;startSize=26;fillColor=#0050ef;horizontalStack=0;resizeParent=1;resizeParentMax=0;resizeLast=0;collapsible=1;marginBottom=0;fontColor=#ffffff;strokeColor=#001DBC;" parent="vVZ5djF-utYb76rSsDAa-1" vertex="1">
                    <mxGeometry x="510" y="420" width="140" height="104" as="geometry"/>
                </mxCell>
                <mxCell id="hBTxGN1n7R34lbs5RGc8-16" value="office_id:int" style="text;strokeColor=none;fillColor=none;align=left;verticalAlign=top;spacingLeft=4;spacingRight=4;overflow=hidden;rotatable=0;points=[[0,0.5],[1,0.5]];portConstraint=eastwest;" parent="hBTxGN1n7R34lbs5RGc8-15" vertex="1">
                    <mxGeometry y="26" width="140" height="26" as="geometry"/>
                </mxCell>
                <mxCell id="hBTxGN1n7R34lbs5RGc8-17" value="fk_e_commerce_id:int" style="text;strokeColor=none;fillColor=none;align=left;verticalAlign=top;spacingLeft=4;spacingRight=4;overflow=hidden;rotatable=0;points=[[0,0.5],[1,0.5]];portConstraint=eastwest;" parent="hBTxGN1n7R34lbs5RGc8-15" vertex="1">
                    <mxGeometry y="52" width="140" height="26" as="geometry"/>
                </mxCell>
                <mxCell id="hBTxGN1n7R34lbs5RGc8-18" value="fk_employer_id:int" style="text;strokeColor=none;fillColor=none;align=left;verticalAlign=top;spacingLeft=4;spacingRight=4;overflow=hidden;rotatable=0;points=[[0,0.5],[1,0.5]];portConstraint=eastwest;" parent="hBTxGN1n7R34lbs5RGc8-15" vertex="1">
                    <mxGeometry y="78" width="140" height="26" as="geometry"/>
                </mxCell>
                <mxCell id="N2jU7-_Bi30Auomegs-V-2" style="edgeStyle=orthogonalEdgeStyle;html=1;entryX=0;entryY=0.5;entryDx=0;entryDy=0;startArrow=none;startFill=0;endArrow=none;endFill=0;" parent="vVZ5djF-utYb76rSsDAa-1" source="IMlC7uSASTn_OTGU-c5A-1" target="N2jU7-_Bi30Auomegs-V-1" edge="1">
                    <mxGeometry relative="1" as="geometry"/>
                </mxCell>
                <mxCell id="N2jU7-_Bi30Auomegs-V-5" style="edgeStyle=orthogonalEdgeStyle;html=1;entryX=0;entryY=0.5;entryDx=0;entryDy=0;startArrow=none;startFill=0;endArrow=none;endFill=0;" parent="vVZ5djF-utYb76rSsDAa-1" source="0MKYh_QOhmCYUrd1aA5g-1" target="71KVQejM1Na75NssMTsE-3" edge="1">
                    <mxGeometry relative="1" as="geometry"/>
                </mxCell>
                <mxCell id="N2jU7-_Bi30Auomegs-V-6" style="edgeStyle=orthogonalEdgeStyle;html=1;entryX=0;entryY=0.5;entryDx=0;entryDy=0;startArrow=none;startFill=0;endArrow=none;endFill=0;exitX=1;exitY=0.5;exitDx=0;exitDy=0;" parent="vVZ5djF-utYb76rSsDAa-1" source="zNNu8xg-2pNTnuFT27i6-2" target="JmUOibSIEj91LaBSfH9i-1" edge="1">
                    <mxGeometry relative="1" as="geometry"/>
                </mxCell>
                <mxCell id="N2jU7-_Bi30Auomegs-V-7" style="edgeStyle=orthogonalEdgeStyle;html=1;entryX=0;entryY=0.5;entryDx=0;entryDy=0;startArrow=none;startFill=0;endArrow=none;endFill=0;" parent="vVZ5djF-utYb76rSsDAa-1" source="JmUOibSIEj91LaBSfH9i-3" target="pHsj-bQBmTcRuArejQxP-1" edge="1">
                    <mxGeometry relative="1" as="geometry"/>
                </mxCell>
                <mxCell id="YzFvMEP5pligHCWfP_yu-0" style="edgeStyle=orthogonalEdgeStyle;html=1;entryX=0;entryY=0.5;entryDx=0;entryDy=0;startArrow=none;startFill=0;endArrow=none;endFill=0;" parent="vVZ5djF-utYb76rSsDAa-1" source="JmUOibSIEj91LaBSfH9i-2" target="5lIQYGUYC-vst8H9QLgj-6" edge="1">
                    <mxGeometry relative="1" as="geometry"/>
                </mxCell>
                <mxCell id="zNNu8xg-2pNTnuFT27i6-1" style="edgeStyle=orthogonalEdgeStyle;html=1;entryX=1;entryY=0.5;entryDx=0;entryDy=0;startArrow=none;startFill=0;endArrow=none;endFill=0;" parent="vVZ5djF-utYb76rSsDAa-1" source="71KVQejM1Na75NssMTsE-0" target="pHsj-bQBmTcRuArejQxP-1" edge="1">
                    <mxGeometry relative="1" as="geometry"/>
                </mxCell>
                <mxCell id="zNNu8xg-2pNTnuFT27i6-7" style="edgeStyle=orthogonalEdgeStyle;html=1;startArrow=none;startFill=0;endArrow=none;endFill=0;exitX=1;exitY=0.5;exitDx=0;exitDy=0;" parent="vVZ5djF-utYb76rSsDAa-1" source="5pcBNOeqyGuDeDVCuuN8-0" target="hBTxGN1n7R34lbs5RGc8-1" edge="1">
                    <mxGeometry relative="1" as="geometry"/>
                </mxCell>
                <mxCell id="wXpJN4cSty36F14_rv9r-0" style="edgeStyle=orthogonalEdgeStyle;html=1;entryX=1;entryY=0.5;entryDx=0;entryDy=0;startArrow=none;startFill=0;endArrow=none;endFill=0;" parent="vVZ5djF-utYb76rSsDAa-1" source="hBTxGN1n7R34lbs5RGc8-3" target="JmUOibSIEj91LaBSfH9i-1" edge="1">
                    <mxGeometry relative="1" as="geometry"/>
                </mxCell>
                <mxCell id="AZd1urnBjwy8UmFdHF9B-1" style="edgeStyle=orthogonalEdgeStyle;html=1;entryX=1;entryY=0.5;entryDx=0;entryDy=0;startArrow=none;startFill=0;endArrow=none;endFill=0;" parent="vVZ5djF-utYb76rSsDAa-1" source="hBTxGN1n7R34lbs5RGc8-17" target="71KVQejM1Na75NssMTsE-2" edge="1">
                    <mxGeometry relative="1" as="geometry"/>
                </mxCell>
                <mxCell id="AZd1urnBjwy8UmFdHF9B-2" style="edgeStyle=orthogonalEdgeStyle;html=1;startArrow=none;startFill=0;endArrow=none;endFill=0;" parent="vVZ5djF-utYb76rSsDAa-1" source="hBTxGN1n7R34lbs5RGc8-18" target="5lIQYGUYC-vst8H9QLgj-1" edge="1">
                    <mxGeometry relative="1" as="geometry"/>
                </mxCell>
                <mxCell id="5pcBNOeqyGuDeDVCuuN8-1" style="edgeStyle=orthogonalEdgeStyle;html=1;entryX=0;entryY=0.5;entryDx=0;entryDy=0;endArrow=baseDash;endFill=0;" edge="1" parent="vVZ5djF-utYb76rSsDAa-1" source="zNNu8xg-2pNTnuFT27i6-6" target="IMlC7uSASTn_OTGU-c5A-1">
                    <mxGeometry relative="1" as="geometry"/>
                </mxCell>
            </root>
        </mxGraphModel>
    </diagram>
</mxfile>